<svg width="236" height="48" viewBox="0 0 236 48" fill="none" xmlns="http://www.w3.org/2000/svg">
<path d="M50.0415 9.664C51.9188 9.664 53.4122 9.83467 54.5215 10.176C55.6308 10.496 56.4308 11.072 56.9215 11.904C57.4335 12.736 57.6895 13.9093 57.6895 15.424C57.6895 17.0027 57.3908 18.208 56.7935 19.04C56.1962 19.872 55.2148 20.352 53.8495 20.48V20.608C55.5348 20.7573 56.7082 21.3333 57.3695 22.336C58.0522 23.3387 58.3935 24.7253 58.3935 26.496C58.3935 28.0107 58.1375 29.184 57.6255 30.016C57.1348 30.848 56.3455 31.4347 55.2575 31.776C54.1908 32.096 52.7935 32.256 51.0655 32.256C49.7215 32.256 48.5482 32.2453 47.5455 32.224C46.5428 32.224 45.6255 32.2027 44.7935 32.16C43.9615 32.1173 43.0975 32.064 42.2015 32L42.6495 29.088C43.1615 29.1093 44.1108 29.1307 45.4975 29.152C46.8842 29.1733 48.5162 29.184 50.3935 29.184C51.3962 29.184 52.1855 29.0987 52.7615 28.928C53.3375 28.736 53.7428 28.3947 53.9775 27.904C54.2335 27.392 54.3615 26.6773 54.3615 25.76C54.3615 24.736 54.2335 23.9573 53.9775 23.424C53.7215 22.8693 53.2948 22.4853 52.6975 22.272C52.1215 22.0373 51.3002 21.92 50.2335 21.92H42.6175V19.2H50.2015C51.1188 19.2 51.8335 19.1147 52.3455 18.944C52.8788 18.752 53.2628 18.4213 53.4975 17.952C53.7322 17.4827 53.8495 16.8107 53.8495 15.936C53.8495 15.0613 53.7215 14.3893 53.4655 13.92C53.2308 13.4507 52.8255 13.1413 52.2495 12.992C51.6735 12.8213 50.8735 12.736 49.8495 12.736C48.7188 12.736 47.7162 12.736 46.8415 12.736C45.9668 12.736 45.1882 12.7467 44.5055 12.768C43.8228 12.768 43.2042 12.7893 42.6495 12.832L42.2015 9.92C43.0122 9.83467 43.7802 9.78133 44.5055 9.76C45.2522 9.71733 46.0628 9.696 46.9375 9.696C47.8335 9.67467 48.8682 9.664 50.0415 9.664ZM46.1055 9.92V32H42.2015V9.92H46.1055ZM72.7883 9.92C73.1296 9.92 73.4283 10.016 73.6843 10.208C73.9403 10.4 74.1216 10.656 74.2283 10.976L80.9163 32H76.8203L71.7643 14.976C71.6789 14.6347 71.5936 14.2933 71.5083 13.952C71.4229 13.6107 71.3483 13.28 71.2843 12.96H70.3883C70.3243 13.28 70.2496 13.6107 70.1643 13.952C70.0789 14.2933 69.9829 14.6347 69.8763 14.976L64.8523 32H60.7563L67.4443 10.976C67.5296 10.656 67.7003 10.4 67.9563 10.208C68.2336 10.016 68.5429 9.92 68.8843 9.92H72.7883ZM76.5003 22.56V25.696H65.1403V22.56H76.5003ZM88.073 9.92V26.88C88.073 27.4987 88.233 27.968 88.553 28.288C88.8943 28.5867 89.3743 28.736 89.993 28.736H97.801L97.993 31.776C96.5423 31.904 95.0277 31.9787 93.449 32C91.8917 32.0427 90.345 32.064 88.809 32.064C87.1877 32.064 85.993 31.648 85.225 30.816C84.4783 29.984 84.105 28.928 84.105 27.648V9.92H88.073ZM107.521 9.92V32H103.521V9.92H107.521ZM114.369 9.92V13.184H96.6725V9.92H114.369ZM122.105 9.92V32H118.105V9.92H122.105ZM135.971 9.536C136.973 9.536 137.827 9.568 138.531 9.632C139.235 9.67467 139.885 9.74933 140.483 9.856C141.08 9.94133 141.699 10.0693 142.339 10.24L141.987 13.216C141.325 13.1733 140.707 13.1413 140.131 13.12C139.555 13.0773 138.936 13.0453 138.275 13.024C137.635 13.0027 136.867 12.992 135.971 12.992C134.733 12.992 133.763 13.2373 133.059 13.728C132.355 14.2187 131.853 15.04 131.555 16.192C131.277 17.344 131.139 18.9333 131.139 20.96C131.139 22.9867 131.277 24.576 131.555 25.728C131.853 26.88 132.355 27.7013 133.059 28.192C133.763 28.6827 134.733 28.928 135.971 28.928C137.4 28.928 138.595 28.9067 139.555 28.864C140.536 28.8 141.496 28.7147 142.435 28.608L142.787 31.552C141.827 31.8507 140.835 32.064 139.811 32.192C138.787 32.32 137.507 32.384 135.971 32.384C133.752 32.384 131.981 32.0213 130.659 31.296C129.336 30.5493 128.376 29.344 127.779 27.68C127.203 26.016 126.915 23.776 126.915 20.96C126.915 18.144 127.203 15.904 127.779 14.24C128.376 12.576 129.336 11.3813 130.659 10.656C131.981 9.90933 133.752 9.536 135.971 9.536ZM151.237 9.856C152.347 9.856 153.477 9.856 154.629 9.856C155.803 9.856 156.955 9.87733 158.085 9.92C159.216 9.96267 160.283 10.0267 161.285 10.112L161.093 13.088H152.453C151.856 13.088 151.408 13.2373 151.109 13.536C150.832 13.8347 150.693 14.304 150.693 14.944V26.976C150.693 27.616 150.832 28.0853 151.109 28.384C151.408 28.6827 151.856 28.832 152.453 28.832H161.093L161.285 31.808C160.283 31.8933 159.216 31.9573 158.085 32C156.955 32.0213 155.803 32.032 154.629 32.032C153.477 32.0533 152.347 32.064 151.237 32.064C149.872 32.064 148.773 31.6907 147.941 30.944C147.131 30.176 146.715 29.152 146.693 27.872V14.048C146.715 12.768 147.131 11.7547 147.941 11.008C148.773 10.24 149.872 9.856 151.237 9.856ZM147.269 18.976H159.877V21.92H147.269V18.976Z" fill="#0165AF"/>
<path d="M167.631 27.616C168.165 27.616 168.527 27.7227 168.719 27.936C168.933 28.128 169.039 28.48 169.039 28.992V30.592C169.039 31.1253 168.933 31.4987 168.719 31.712C168.527 31.904 168.165 32 167.631 32H166.575C166.063 32 165.701 31.904 165.487 31.712C165.274 31.4987 165.167 31.1253 165.167 30.592V28.992C165.167 28.48 165.274 28.128 165.487 27.936C165.701 27.7227 166.063 27.616 166.575 27.616H167.631ZM182.362 9.504C184.068 9.504 185.508 9.696 186.682 10.08C187.855 10.4427 188.794 11.0613 189.498 11.936C190.202 12.8107 190.714 13.984 191.034 15.456C191.375 16.928 191.546 18.7627 191.546 20.96C191.546 23.136 191.375 24.9707 191.034 26.464C190.714 27.936 190.202 29.1093 189.498 29.984C188.794 30.8587 187.855 31.488 186.682 31.872C185.508 32.2347 184.068 32.416 182.362 32.416C180.698 32.416 179.279 32.2347 178.106 31.872C176.932 31.488 175.983 30.8587 175.258 29.984C174.532 29.1093 174.01 27.936 173.69 26.464C173.37 24.9707 173.21 23.136 173.21 20.96C173.21 18.7627 173.37 16.928 173.69 15.456C174.01 13.984 174.532 12.8107 175.258 11.936C175.983 11.0613 176.932 10.4427 178.106 10.08C179.279 9.696 180.698 9.504 182.362 9.504ZM182.362 12.768C181.103 12.768 180.111 13.024 179.386 13.536C178.682 14.0267 178.18 14.8693 177.882 16.064C177.583 17.2373 177.434 18.8693 177.434 20.96C177.434 23.0507 177.583 24.6933 177.882 25.888C178.18 27.0613 178.682 27.904 179.386 28.416C180.111 28.9067 181.103 29.152 182.362 29.152C183.642 29.152 184.634 28.9067 185.338 28.416C186.063 27.904 186.575 27.0613 186.874 25.888C187.172 24.6933 187.322 23.0507 187.322 20.96C187.322 18.8693 187.172 17.2373 186.874 16.064C186.575 14.8693 186.063 14.0267 185.338 13.536C184.634 13.024 183.642 12.768 182.362 12.768ZM204.464 9.632C206.299 9.632 207.782 9.824 208.912 10.208C210.064 10.592 210.896 11.2533 211.408 12.192C211.942 13.1093 212.208 14.4107 212.208 16.096C212.208 17.2053 212.07 18.1547 211.792 18.944C211.536 19.712 211.099 20.3307 210.48 20.8C209.883 21.248 209.072 21.536 208.048 21.664V21.824C208.411 21.9093 208.784 22.08 209.168 22.336C209.574 22.5707 209.936 22.912 210.256 23.36C210.598 23.808 210.854 24.384 211.024 25.088L213.04 32H208.816L206.992 25.184C206.758 24.416 206.438 23.8827 206.032 23.584C205.627 23.264 205.072 23.104 204.368 23.104C202.982 23.104 201.798 23.104 200.816 23.104C199.835 23.0827 199.014 23.0613 198.352 23.04C197.712 23.0187 197.147 23.008 196.656 23.008L196.752 19.968H204.368C205.328 19.9467 206.086 19.84 206.64 19.648C207.195 19.4347 207.59 19.072 207.824 18.56C208.059 18.0267 208.176 17.28 208.176 16.32C208.176 15.3813 208.059 14.656 207.824 14.144C207.59 13.632 207.195 13.28 206.64 13.088C206.086 12.8747 205.328 12.768 204.368 12.768C202.491 12.768 200.88 12.7787 199.536 12.8C198.192 12.8213 197.275 12.8427 196.784 12.864L196.336 9.92C197.19 9.83467 197.99 9.77067 198.736 9.728C199.504 9.68533 200.336 9.664 201.232 9.664C202.128 9.64267 203.206 9.632 204.464 9.632ZM200.272 9.92V32H196.336V9.92H200.272ZM226.058 9.504C226.932 9.504 227.743 9.52533 228.49 9.568C229.258 9.61067 229.983 9.68533 230.666 9.792C231.348 9.89867 232.02 10.048 232.682 10.24L232.33 13.184C231.626 13.1413 230.932 13.1093 230.25 13.088C229.567 13.0453 228.884 13.024 228.202 13.024C227.54 13.0027 226.868 12.992 226.186 12.992C225.162 12.992 224.298 13.0987 223.594 13.312C222.89 13.504 222.324 13.888 221.898 14.464C221.492 15.04 221.194 15.8613 221.002 16.928C220.81 17.9947 220.714 19.3707 220.714 21.056C220.714 23.04 220.842 24.608 221.098 25.76C221.375 26.8907 221.823 27.712 222.442 28.224C223.06 28.7147 223.892 28.96 224.938 28.96C225.642 28.96 226.292 28.8747 226.89 28.704C227.487 28.5333 228.031 28.3093 228.522 28.032C229.034 27.7333 229.514 27.4347 229.962 27.136L230.442 29.216C230.1 29.6427 229.599 30.112 228.938 30.624C228.298 31.1147 227.53 31.5413 226.634 31.904C225.738 32.2453 224.724 32.416 223.594 32.416C221.93 32.416 220.564 32.0213 219.498 31.232C218.452 30.4213 217.684 29.1733 217.194 27.488C216.724 25.7813 216.49 23.5947 216.49 20.928C216.49 18.0267 216.799 15.744 217.418 14.08C218.036 12.416 219.039 11.2427 220.426 10.56C221.834 9.856 223.711 9.504 226.058 9.504ZM233.386 19.264V32H230.442L229.866 28.704L229.482 27.904V19.264H233.386Z" fill="#49C2F1"/>
<path d="M6.73584 43.5454C6.73584 43.9429 6.66064 44.2938 6.51025 44.5981C6.35986 44.9025 6.15755 45.1532 5.90332 45.3501C5.60254 45.5864 5.28027 45.7547 4.93652 45.855C4.59277 45.9517 4.14876 46 3.60449 46H1.31104V38.0024H3.43262C4.00195 38.0024 4.42806 38.0221 4.71094 38.0615C4.9974 38.0973 5.27132 38.1851 5.53271 38.3247C5.81917 38.4787 6.02865 38.681 6.16113 38.9316C6.29362 39.1787 6.35986 39.4705 6.35986 39.8071C6.35986 40.1831 6.2596 40.5197 6.05908 40.8169C5.86214 41.1141 5.58822 41.3468 5.2373 41.5151V41.5581C5.71354 41.687 6.08236 41.9233 6.34375 42.2671C6.60514 42.6073 6.73584 43.0334 6.73584 43.5454ZM5.25342 39.9575C5.25342 39.7642 5.22119 39.5977 5.15674 39.458C5.09229 39.3148 4.98844 39.202 4.84521 39.1196C4.67334 39.0229 4.48177 38.9639 4.27051 38.9424C4.05924 38.9209 3.76742 38.9102 3.39502 38.9102H2.37451V41.252H3.58301C3.91602 41.252 4.1613 41.2358 4.31885 41.2036C4.4764 41.1678 4.63932 41.0962 4.80762 40.9888C4.96875 40.8849 5.08333 40.7489 5.15137 40.5806C5.2194 40.4123 5.25342 40.2046 5.25342 39.9575ZM5.62939 43.5884C5.62939 43.2876 5.58643 43.0405 5.50049 42.8472C5.41455 42.6502 5.24089 42.4837 4.97949 42.3477C4.8112 42.2581 4.62679 42.2008 4.42627 42.1758C4.22933 42.1507 3.94824 42.1382 3.58301 42.1382H2.37451V45.0923H3.23926C3.70475 45.0923 4.07178 45.0708 4.34033 45.0278C4.60889 44.9849 4.84521 44.8936 5.04932 44.7539C5.24984 44.6143 5.39665 44.4567 5.48975 44.2812C5.58285 44.1022 5.62939 43.8713 5.62939 43.5884ZM8.80457 46L11.5009 38.0024H12.8114L15.5077 46H14.3851L13.66 43.7656H10.6039L9.87879 46H8.80457ZM13.3646 42.8579L12.1293 39.0874L10.8993 42.8579H13.3646ZM22.7703 46H18.135V38.0024H19.1985V45.0547H22.7703V46ZM26.4826 46V38.9478H23.797V38.0024H30.2316V38.9478H27.546V46H26.4826ZM35.7002 46H32.5957V45.1836H33.6162V38.8188H32.5957V38.0024H35.7002V38.8188H34.6797V45.1836H35.7002V46ZM42.0067 46.145C41.484 46.145 41.0023 46.0573 40.5619 45.8818C40.1251 45.7064 39.7473 45.445 39.4286 45.0977C39.1099 44.7503 38.8629 44.3171 38.6874 43.7979C38.5119 43.2786 38.4242 42.6825 38.4242 42.0093C38.4242 41.3397 38.5084 40.756 38.6767 40.2583C38.8485 39.7606 39.0974 39.3273 39.4232 38.9585C39.7419 38.6004 40.1197 38.3283 40.5565 38.1421C40.9934 37.9523 41.4822 37.8574 42.0229 37.8574C42.2914 37.8574 42.5421 37.8771 42.7748 37.9165C43.0111 37.9559 43.2296 38.006 43.4301 38.0669C43.602 38.1206 43.7774 38.1886 43.9564 38.271C44.1391 38.3498 44.3181 38.4375 44.4936 38.5342V39.8179H44.4076C44.3145 39.7319 44.1946 39.6281 44.0478 39.5063C43.9009 39.3846 43.7219 39.2646 43.5106 39.1465C43.3065 39.0355 43.0845 38.9442 42.8446 38.8726C42.6047 38.8009 42.3272 38.7651 42.0121 38.7651C41.6719 38.7651 41.3497 38.835 41.0453 38.9746C40.7409 39.1143 40.4742 39.3201 40.245 39.5923C40.0194 39.8644 39.844 40.2064 39.7187 40.6182C39.5933 41.0299 39.5307 41.4937 39.5307 42.0093C39.5307 42.5571 39.5969 43.0298 39.7294 43.4272C39.8619 43.8211 40.0427 44.1541 40.2719 44.4263C40.4939 44.6912 40.7553 44.8918 41.0561 45.0278C41.3568 45.1603 41.6755 45.2266 42.0121 45.2266C42.3201 45.2266 42.6047 45.189 42.8661 45.1138C43.1275 45.0386 43.3603 44.9437 43.5644 44.8291C43.7613 44.7181 43.9314 44.6053 44.0746 44.4907C44.2178 44.3726 44.3306 44.2723 44.413 44.1899H44.4936V45.4575C44.3181 45.5399 44.1516 45.6187 43.994 45.6938C43.8401 45.769 43.6521 45.8424 43.4301 45.9141C43.1973 45.9893 42.9807 46.0465 42.7802 46.0859C42.5832 46.1253 42.3254 46.145 42.0067 46.145ZM55.4577 46H52.3532V45.1836H53.3737V38.8188H52.3532V38.0024H55.4577V38.8188H54.4372V45.1836H55.4577V46ZM61.7642 46.145C61.2414 46.145 60.7598 46.0573 60.3194 45.8818C59.8825 45.7064 59.5048 45.445 59.1861 45.0977C58.8674 44.7503 58.6203 44.3171 58.4449 43.7979C58.2694 43.2786 58.1817 42.6825 58.1817 42.0093C58.1817 41.3397 58.2658 40.756 58.4341 40.2583C58.606 39.7606 58.8549 39.3273 59.1807 38.9585C59.4994 38.6004 59.8772 38.3283 60.314 38.1421C60.7509 37.9523 61.2396 37.8574 61.7803 37.8574C62.0489 37.8574 62.2995 37.8771 62.5323 37.9165C62.7686 37.9559 62.987 38.006 63.1875 38.0669C63.3594 38.1206 63.5349 38.1886 63.7139 38.271C63.8965 38.3498 64.0756 38.4375 64.251 38.5342V39.8179H64.1651C64.072 39.7319 63.952 39.6281 63.8052 39.5063C63.6584 39.3846 63.4794 39.2646 63.2681 39.1465C63.064 39.0355 62.842 38.9442 62.6021 38.8726C62.3622 38.8009 62.0847 38.7651 61.7696 38.7651C61.4294 38.7651 61.1071 38.835 60.8028 38.9746C60.4984 39.1143 60.2316 39.3201 60.0025 39.5923C59.7769 39.8644 59.6014 40.2064 59.4761 40.6182C59.3508 41.0299 59.2881 41.4937 59.2881 42.0093C59.2881 42.5571 59.3544 43.0298 59.4869 43.4272C59.6193 43.8211 59.8002 44.1541 60.0293 44.4263C60.2513 44.6912 60.5127 44.8918 60.8135 45.0278C61.1143 45.1603 61.433 45.2266 61.7696 45.2266C62.0775 45.2266 62.3622 45.189 62.6236 45.1138C62.885 45.0386 63.1177 44.9437 63.3218 44.8291C63.5188 44.7181 63.6888 44.6053 63.8321 44.4907C63.9753 44.3726 64.0881 44.2723 64.1704 44.1899H64.251V45.4575C64.0756 45.5399 63.9091 45.6187 63.7515 45.6938C63.5975 45.769 63.4095 45.8424 63.1875 45.9141C62.9548 45.9893 62.7382 46.0465 62.5376 46.0859C62.3407 46.1253 62.0829 46.145 61.7642 46.145ZM67.1147 46V38.0024H72.1152V38.9478H68.1781V41.1392H71.8466V42.0845H68.1781V45.0547H72.1152V46H67.1147ZM80.5862 43.5454C80.5862 43.9429 80.511 44.2938 80.3606 44.5981C80.2103 44.9025 80.0079 45.1532 79.7537 45.3501C79.4529 45.5864 79.1307 45.7547 78.7869 45.855C78.4432 45.9517 77.9992 46 77.4549 46H75.1614V38.0024H77.283C77.8523 38.0024 78.2784 38.0221 78.5613 38.0615C78.8478 38.0973 79.1217 38.1851 79.3831 38.3247C79.6696 38.4787 79.879 38.681 80.0115 38.9316C80.144 39.1787 80.2103 39.4705 80.2103 39.8071C80.2103 40.1831 80.11 40.5197 79.9095 40.8169C79.7125 41.1141 79.4386 41.3468 79.0877 41.5151V41.5581C79.5639 41.687 79.9327 41.9233 80.1941 42.2671C80.4555 42.6073 80.5862 43.0334 80.5862 43.5454ZM79.1038 39.9575C79.1038 39.7642 79.0716 39.5977 79.0071 39.458C78.9427 39.3148 78.8388 39.202 78.6956 39.1196C78.5237 39.0229 78.3322 38.9639 78.1209 38.9424C77.9096 38.9209 77.6178 38.9102 77.2454 38.9102H76.2249V41.252H77.4334C77.7664 41.252 78.0117 41.2358 78.1692 41.2036C78.3268 41.1678 78.4897 41.0962 78.658 40.9888C78.8191 40.8849 78.9337 40.7489 79.0018 40.5806C79.0698 40.4123 79.1038 40.2046 79.1038 39.9575ZM79.4798 43.5884C79.4798 43.2876 79.4368 43.0405 79.3509 42.8472C79.2649 42.6502 79.0913 42.4837 78.8299 42.3477C78.6616 42.2581 78.4772 42.2008 78.2767 42.1758C78.0797 42.1507 77.7986 42.1382 77.4334 42.1382H76.2249V45.0923H77.0896C77.5551 45.0923 77.9222 45.0708 78.1907 45.0278C78.4593 44.9849 78.6956 44.8936 78.8997 44.7539C79.1002 44.6143 79.247 44.4567 79.3401 44.2812C79.4332 44.1022 79.4798 43.8713 79.4798 43.5884ZM89.7126 46H88.3322L85.7971 42.8203H84.5832V46H83.5197V38.0024H85.5822C86.0405 38.0024 86.4237 38.0275 86.7316 38.0776C87.0431 38.1278 87.3386 38.2441 87.6179 38.4268C87.8971 38.6058 88.1174 38.8368 88.2785 39.1196C88.4432 39.4025 88.5256 39.7534 88.5256 40.1724C88.5256 40.7596 88.377 41.2502 88.0798 41.644C87.7826 42.0379 87.3779 42.3298 86.8659 42.5195L89.7126 46ZM87.4137 40.2529C87.4137 40.0202 87.3726 39.8143 87.2902 39.6353C87.2079 39.4526 87.0807 39.304 86.9089 39.1895C86.7585 39.0892 86.583 39.0194 86.3825 38.98C86.182 38.937 85.9331 38.9155 85.6359 38.9155H84.5832V41.9341H85.5178C85.8221 41.9341 86.096 41.9072 86.3395 41.8535C86.583 41.7998 86.7907 41.6888 86.9626 41.5205C87.1165 41.3701 87.2293 41.1911 87.301 40.9834C87.3762 40.7757 87.4137 40.5322 87.4137 40.2529ZM92.2217 46V38.0024H97.2222V38.9478H93.2852V41.1392H96.9537V42.0845H93.2852V45.0547H97.2222V46H92.2217ZM99.4037 46L102.1 38.0024H103.411L106.107 46H104.984L104.259 43.7656H101.203L100.478 46H99.4037ZM103.964 42.8579L102.728 39.0874L101.498 42.8579H103.964ZM114.562 46H113.181L110.265 42.2778L109.798 42.8042V46H108.734V38.0024H109.798V41.6816L113.074 38.0024H114.368L111.06 41.5742L114.562 46ZM119.864 46H116.759V45.1836H117.78V38.8188H116.759V38.0024H119.864V38.8188H118.843V45.1836H119.864V46ZM128.765 46H127.572L124.038 39.1035V46H123.045V38.0024H124.554L127.771 44.335V38.0024H128.765V46ZM135.608 46.1558C135.043 46.1558 134.525 46.0698 134.056 45.8979C133.587 45.7261 133.184 45.4647 132.848 45.1138C132.511 44.7593 132.253 44.3206 132.074 43.7979C131.895 43.2751 131.806 42.6735 131.806 41.9932C131.806 41.3486 131.895 40.7721 132.074 40.2637C132.257 39.7516 132.516 39.3148 132.853 38.9531C133.179 38.6022 133.58 38.3319 134.056 38.1421C134.532 37.9523 135.053 37.8574 135.619 37.8574C135.888 37.8574 136.145 37.8771 136.393 37.9165C136.64 37.9559 136.876 38.0096 137.102 38.0776C137.281 38.1313 137.479 38.2065 137.698 38.3032C137.92 38.3963 138.099 38.4769 138.235 38.5449V39.8286H138.144C138.011 39.7104 137.873 39.5994 137.73 39.4956C137.59 39.3882 137.392 39.2736 137.134 39.1519C136.919 39.0444 136.672 38.9549 136.393 38.8833C136.113 38.8117 135.812 38.7759 135.49 38.7759C134.72 38.7759 134.097 39.0659 133.621 39.646C133.148 40.2261 132.912 40.9977 132.912 41.9609C132.912 42.498 132.975 42.9671 133.1 43.3682C133.225 43.7692 133.406 44.1094 133.643 44.3887C133.872 44.6644 134.147 44.8757 134.47 45.0225C134.796 45.1657 135.161 45.2373 135.565 45.2373C135.866 45.2373 136.165 45.2158 136.462 45.1729C136.76 45.1299 137.01 45.0654 137.214 44.9795V42.9116H135.367V41.9771H138.267V45.4683C138.131 45.5291 137.948 45.6061 137.719 45.6992C137.494 45.7923 137.282 45.8657 137.085 45.9194C136.824 45.9982 136.588 46.0573 136.376 46.0967C136.165 46.1361 135.909 46.1558 135.608 46.1558ZM153.641 46H152.577V39.1089L150.493 43.7979H149.849L147.781 39.1089V46H146.787V38.0024H148.238L150.236 42.4551L152.164 38.0024H153.641V46ZM156.268 46L158.964 38.0024H160.275L162.971 46H161.849L161.124 43.7656H158.067L157.342 46H156.268ZM160.828 42.8579L159.593 39.0874L158.363 42.8579H160.828ZM171.319 46H170.126L166.592 39.1035V46H165.599V38.0024H167.108L170.325 44.335V38.0024H171.319V46ZM173.952 46L176.648 38.0024H177.958L180.655 46H179.532L178.807 43.7656H175.751L175.026 46H173.952ZM178.512 42.8579L177.276 39.0874L176.046 42.8579H178.512ZM186.628 46.1558C186.062 46.1558 185.545 46.0698 185.076 45.8979C184.607 45.7261 184.204 45.4647 183.867 45.1138C183.531 44.7593 183.273 44.3206 183.094 43.7979C182.915 43.2751 182.825 42.6735 182.825 41.9932C182.825 41.3486 182.915 40.7721 183.094 40.2637C183.277 39.7516 183.536 39.3148 183.873 38.9531C184.199 38.6022 184.6 38.3319 185.076 38.1421C185.552 37.9523 186.073 37.8574 186.639 37.8574C186.907 37.8574 187.165 37.8771 187.412 37.9165C187.659 37.9559 187.896 38.0096 188.121 38.0776C188.3 38.1313 188.499 38.2065 188.718 38.3032C188.94 38.3963 189.119 38.4769 189.255 38.5449V39.8286H189.163C189.031 39.7104 188.893 39.5994 188.75 39.4956C188.61 39.3882 188.411 39.2736 188.154 39.1519C187.939 39.0444 187.692 38.9549 187.412 38.8833C187.133 38.8117 186.832 38.7759 186.51 38.7759C185.74 38.7759 185.117 39.0659 184.641 39.646C184.168 40.2261 183.932 40.9977 183.932 41.9609C183.932 42.498 183.995 42.9671 184.12 43.3682C184.245 43.7692 184.426 44.1094 184.662 44.3887C184.892 44.6644 185.167 44.8757 185.489 45.0225C185.815 45.1657 186.181 45.2373 186.585 45.2373C186.886 45.2373 187.185 45.2158 187.482 45.1729C187.779 45.1299 188.03 45.0654 188.234 44.9795V42.9116H186.386V41.9771H189.287V45.4683C189.151 45.5291 188.968 45.6061 188.739 45.6992C188.513 45.7923 188.302 45.8657 188.105 45.9194C187.844 45.9982 187.607 46.0573 187.396 46.0967C187.185 46.1361 186.929 46.1558 186.628 46.1558ZM192.5 46V38.0024H197.5V38.9478H193.563V41.1392H197.232V42.0845H193.563V45.0547H197.5V46H192.5ZM207.4 46H206.336V39.1089L204.252 43.7979H203.608L201.54 39.1089V46H200.546V38.0024H201.997L203.995 42.4551L205.923 38.0024H207.4V46ZM210.892 46V38.0024H215.892V38.9478H211.955V41.1392H215.624V42.0845H211.955V45.0547H215.892V46H210.892ZM224.659 46H223.467L219.932 39.1035V46H218.939V38.0024H220.448L223.665 44.335V38.0024H224.659V46ZM230.026 46V38.9478H227.34V38.0024H233.775V38.9478H231.089V46H230.026Z" fill="#0165AF"/>
<g clip-path="url(#clip0_863_8479)">
<path d="M17.4821 21.0801C10.132 22.1721 5.86285 23.3255 5.62669 23.6726C5.2888 24.2222 5.46683 30.0835 5.61579 30.5354C5.89555 31.3382 5.94777 31.7903 6.38739 32" stroke="#49C2F1" stroke-width="2" stroke-linecap="round"/>
<path d="M17.5137 21.0801C24.8638 22.1721 29.1292 23.3255 29.3654 23.6726C29.7069 24.2222 29.5289 30.0835 29.3763 30.5354C29.1002 31.3382 28.9282 31.7903 28.4922 32" stroke="#49C2F1" stroke-width="2" stroke-linecap="round"/>
<path d="M5.42188 27.2463C8.74269 25.9193 11.5585 25.2323 14.8647 24.9395" stroke="#49C2F1" stroke-linecap="round"/>
<path d="M29.574 27.2463C26.2568 25.9193 23.4374 25.2323 20.1348 24.9395" stroke="#49C2F1" stroke-linecap="round"/>
<path d="M17.4572 23.1641C16.8359 23.6124 15.6478 23.8836 15.3499 24.162C15.1791 24.332 15.6696 25.6517 15.8912 25.9663C16.1528 26.3243 16.8795 26.9679 17.3845 27.3584" stroke="#49C2F1" stroke-linecap="round"/>
<path d="M17.5371 23.1641C18.1584 23.6124 19.3428 23.8836 19.6444 24.162C19.8152 24.332 19.321 25.6517 19.103 25.9663C18.8415 26.3243 18.1112 26.9679 17.6098 27.3584" stroke="#49C2F1" stroke-linecap="round"/>
<path d="M17.4395 31.5L19.3035 29.5664L20.5752 29.928L21.8468 29.7472L24.4732 32" stroke="#49C2F1" stroke-width="2" stroke-linecap="square"/>
<path d="M17.44 31.5L15.6921 29.5664L14.4168 29.928L13.1488 29.7472L10.4062 32" stroke="#49C2F1" stroke-width="2" stroke-linecap="square"/>
<path d="M17.5 12H6.5V23" stroke="#49C2F1" stroke-width="2" stroke-linecap="round"/>
<path d="M17.5 12H28.5V23" stroke="#49C2F1" stroke-width="2" stroke-linecap="square"/>
<path d="M28.5 12L29.5 10H31.5L32.5 9V7H17.5" stroke="#49C2F1" stroke-width="2" stroke-linecap="square"/>
<path d="M6.5 12L5.5 10H3.5L2.5 9V7H17.5" stroke="#49C2F1" stroke-width="2" stroke-linecap="square"/>
<path d="M14.7638 13.4766C15.0617 13.4838 15.4868 13.9032 15.4904 14.1997C15.4868 14.4962 15.0617 14.9193 14.7638 14.9229C14.4658 14.9193 14.0444 14.4962 14.0371 14.1997C14.0444 13.9032 14.4658 13.4838 14.7638 13.4766Z" fill="#49C2F1"/>
<path d="M20.2325 13.4766C19.9346 13.4838 19.5131 13.9032 19.5059 14.1997C19.5131 14.4962 19.9346 14.9193 20.2325 14.9229C20.5341 14.9193 20.9555 14.4962 20.9592 14.1997C20.9555 13.9032 20.5341 13.4838 20.2325 13.4766Z" fill="#49C2F1"/>
<path d="M14.7638 16.3652C15.0617 16.3725 15.4868 16.7919 15.4904 17.0884C15.4868 17.3849 15.0617 17.8079 14.7638 17.8116C14.4658 17.8079 14.0444 17.3849 14.0371 17.0884C14.0444 16.7919 14.4658 16.3725 14.7638 16.3652Z" fill="#49C2F1"/>
<path d="M20.2325 16.3652C19.9346 16.3725 19.5131 16.7919 19.5059 17.0884C19.5131 17.3849 19.9346 17.8079 20.2325 17.8116C20.5341 17.8079 20.9555 17.3849 20.9592 17.0884C20.9555 16.7919 20.5341 16.3725 20.2325 16.3652Z" fill="#49C2F1"/>
<path d="M14.7638 19.2617C15.0617 19.269 15.4868 19.6884 15.4904 19.9849C15.4868 20.2814 15.0617 20.7044 14.7638 20.708C14.4658 20.7044 14.0444 20.2814 14.0371 19.9849C14.0444 19.6884 14.4658 19.269 14.7638 19.2617Z" fill="#49C2F1"/>
<path d="M20.2325 19.2617C19.9346 19.269 19.5131 19.6884 19.5059 19.9849C19.5131 20.2814 19.9346 20.7044 20.2325 20.708C20.5341 20.7044 20.9555 20.2814 20.9592 19.9849C20.9555 19.6884 20.5341 19.269 20.2325 19.2617Z" fill="#49C2F1"/>
<path d="M24.9591 13.4766C24.6611 13.4838 24.2397 13.9032 24.2324 14.1997C24.2397 14.4962 24.6611 14.9193 24.9591 14.9229C25.2606 14.9193 25.6821 14.4962 25.6857 14.1997C25.6821 13.9032 25.2606 13.4838 24.9591 13.4766Z" fill="#49C2F1"/>
<path d="M24.9591 16.3652C24.6611 16.3725 24.2397 16.7919 24.2324 17.0884C24.2397 17.3849 24.6611 17.8079 24.9591 17.8116C25.2606 17.8079 25.6821 17.3849 25.6857 17.0884C25.6821 16.7919 25.2606 16.3725 24.9591 16.3652Z" fill="#49C2F1"/>
<path d="M24.9591 19.2617C24.6611 19.269 24.2397 19.6884 24.2324 19.9849C24.2397 20.2814 24.6611 20.7044 24.9591 20.708C25.2606 20.7044 25.6821 20.2814 25.6857 19.9849C25.6821 19.6884 25.2606 19.269 24.9591 19.2617Z" fill="#49C2F1"/>
<path d="M10.0372 13.4766C10.3351 13.4838 10.7602 13.9032 10.7639 14.1997C10.7602 14.4962 10.3351 14.9193 10.0372 14.9229C9.73927 14.9193 9.31781 14.4962 9.31055 14.1997C9.31781 13.9032 9.73927 13.4838 10.0372 13.4766Z" fill="#49C2F1"/>
<path d="M10.0372 16.3652C10.3351 16.3725 10.7602 16.7919 10.7639 17.0884C10.7602 17.3849 10.3351 17.8079 10.0372 17.8116C9.73927 17.8079 9.31781 17.3849 9.31055 17.0884C9.31781 16.7919 9.73927 16.3725 10.0372 16.3652Z" fill="#49C2F1"/>
<path d="M10.0372 19.2617C10.3351 19.269 10.7602 19.6884 10.7639 19.9849C10.7602 20.2814 10.3351 20.7044 10.0372 20.708C9.73927 20.7044 9.31781 20.2814 9.31055 19.9849C9.31781 19.6884 9.73927 19.269 10.0372 19.2617Z" fill="#49C2F1"/>
<path d="M9.5 9H10.5V10H9.5V9Z" fill="#49C2F1"/>
<path d="M7.5 9H8.5V10H7.5V9Z" fill="#49C2F1"/>
<path d="M11.5 9H12.5V10H11.5V9Z" fill="#49C2F1"/>
<path d="M13.5 9H14.5V10H13.5V9Z" fill="#49C2F1"/>
<path d="M15.5 9H16.5V10H15.5V9Z" fill="#49C2F1"/>
<path d="M16.5 9H17.5V10H16.5V9Z" fill="#49C2F1"/>
<path d="M17.5 9H18.5V10H17.5V9Z" fill="#49C2F1"/>
<path d="M20.5 9H21.5V10H20.5V9Z" fill="#49C2F1"/>
<path d="M18.5 9H19.5V10H18.5V9Z" fill="#49C2F1"/>
<path d="M22.5 9H23.5V10H22.5V9Z" fill="#49C2F1"/>
<path d="M24.5 9H25.5V10H24.5V9Z" fill="#49C2F1"/>
<path d="M26.5 9H27.5V10H26.5V9Z" fill="#49C2F1"/>
<path d="M11.4109 33L9.12987 31.7338L8.22155 31.1914L6.40492 32.2762L4.58828 32.0954L3.4983 31.1914L2.22665 31.3722L1.5 32.0954" stroke="#49C2F1" stroke-width="2" stroke-linecap="square"/>
<path d="M23.4688 33L25.8707 31.7338L26.7754 31.1914L28.5921 32.2762L30.4087 32.0954L31.4987 31.1914L32.774 31.3722L33.5006 32.0954" stroke="#49C2F1" stroke-width="2" stroke-linecap="square"/>
<path d="M17.4844 27.5V32.2773" stroke="#49C2F1" stroke-linecap="round"/>
<path d="M15.5 7L17.5 3L19.5 7H15.5Z" fill="#49C2F1"/>
<rect x="13.5" y="3" width="8" height="1" fill="#49C2F1"/>
<rect x="16.5" y="1" width="2" height="5" fill="#49C2F1"/>
</g>
<defs>
<clipPath id="clip0_863_8479">
<rect width="32.0007" height="32.0003" fill="white" transform="translate(1.5 1)"/>
</clipPath>
</defs>
</svg>
