<svg width="192" height="24" viewBox="0 0 192 24" fill="none" xmlns="http://www.w3.org/2000/svg">
    <path d="M8.5415 0.664C10.4188 0.664 11.9122 0.834666 13.0215 1.176C14.1308 1.496 14.9308 2.072 15.4215 2.904C15.9335 3.736 16.1895 4.90933 16.1895 6.424C16.1895 8.00267 15.8908 9.208 15.2935 10.04C14.6962 10.872 13.7148 11.352 12.3495 11.48V11.608C14.0348 11.7573 15.2082 12.3333 15.8695 13.336C16.5522 14.3387 16.8935 15.7253 16.8935 17.496C16.8935 19.0107 16.6375 20.184 16.1255 21.016C15.6348 21.848 14.8455 22.4347 13.7575 22.776C12.6908 23.096 11.2935 23.256 9.5655 23.256C8.2215 23.256 7.04817 23.2453 6.0455 23.224C5.04284 23.224 4.1255 23.2027 3.2935 23.16C2.4615 23.1173 1.5975 23.064 0.701503 23L1.1495 20.088C1.6615 20.1093 2.61084 20.1307 3.9975 20.152C5.38417 20.1733 7.01617 20.184 8.8935 20.184C9.89617 20.184 10.6855 20.0987 11.2615 19.928C11.8375 19.736 12.2428 19.3947 12.4775 18.904C12.7335 18.392 12.8615 17.6773 12.8615 16.76C12.8615 15.736 12.7335 14.9573 12.4775 14.424C12.2215 13.8693 11.7948 13.4853 11.1975 13.272C10.6215 13.0373 9.80017 12.92 8.7335 12.92H1.1175V10.2H8.7015C9.61884 10.2 10.3335 10.1147 10.8455 9.944C11.3788 9.752 11.7628 9.42133 11.9975 8.952C12.2322 8.48267 12.3495 7.81067 12.3495 6.936C12.3495 6.06133 12.2215 5.38933 11.9655 4.92C11.7308 4.45067 11.3255 4.14133 10.7495 3.992C10.1735 3.82133 9.3735 3.736 8.3495 3.736C7.21884 3.736 6.21617 3.736 5.3415 3.736C4.46684 3.736 3.68817 3.74667 3.0055 3.768C2.32284 3.768 1.70417 3.78933 1.1495 3.832L0.701503 0.919998C1.51217 0.834666 2.28017 0.781333 3.0055 0.759998C3.75217 0.717332 4.56284 0.695999 5.4375 0.695999C6.3335 0.674666 7.36817 0.664 8.5415 0.664ZM4.6055 0.919998V23H0.701503V0.919998H4.6055ZM31.2883 0.919998C31.6296 0.919998 31.9283 1.016 32.1843 1.208C32.4403 1.4 32.6216 1.656 32.7283 1.976L39.4163 23H35.3203L30.2643 5.976C30.1789 5.63467 30.0936 5.29333 30.0083 4.952C29.9229 4.61067 29.8483 4.28 29.7843 3.96H28.8883C28.8243 4.28 28.7496 4.61067 28.6643 4.952C28.5789 5.29333 28.4829 5.63467 28.3763 5.976L23.3523 23H19.2563L25.9443 1.976C26.0296 1.656 26.2003 1.4 26.4563 1.208C26.7336 1.016 27.0429 0.919998 27.3843 0.919998H31.2883ZM35.0003 13.56V16.696H23.6403V13.56H35.0003ZM46.573 0.919998V17.88C46.573 18.4987 46.733 18.968 47.053 19.288C47.3943 19.5867 47.8743 19.736 48.493 19.736H56.301L56.493 22.776C55.0423 22.904 53.5277 22.9787 51.949 23C50.3917 23.0427 48.845 23.064 47.309 23.064C45.6877 23.064 44.493 22.648 43.725 21.816C42.9783 20.984 42.605 19.928 42.605 18.648V0.919998H46.573ZM66.0205 0.919998V23H62.0205V0.919998H66.0205ZM72.8685 0.919998V4.184H55.1725V0.919998H72.8685ZM80.6053 0.919998V23H76.6053V0.919998H80.6053ZM94.4708 0.535999C95.4734 0.535999 96.3268 0.567999 97.0308 0.631998C97.7348 0.674665 98.3854 0.749332 98.9828 0.855999C99.5801 0.941332 100.199 1.06933 100.839 1.24L100.487 4.216C99.8254 4.17333 99.2068 4.14133 98.6308 4.12C98.0548 4.07733 97.4361 4.04533 96.7748 4.024C96.1348 4.00267 95.3668 3.992 94.4708 3.992C93.2334 3.992 92.2628 4.23733 91.5588 4.728C90.8548 5.21867 90.3534 6.04 90.0548 7.192C89.7774 8.344 89.6388 9.93333 89.6388 11.96C89.6388 13.9867 89.7774 15.576 90.0548 16.728C90.3534 17.88 90.8548 18.7013 91.5588 19.192C92.2628 19.6827 93.2334 19.928 94.4708 19.928C95.9001 19.928 97.0948 19.9067 98.0548 19.864C99.0361 19.8 99.9961 19.7147 100.935 19.608L101.287 22.552C100.327 22.8507 99.3348 23.064 98.3108 23.192C97.2868 23.32 96.0068 23.384 94.4708 23.384C92.2521 23.384 90.4814 23.0213 89.1588 22.296C87.8361 21.5493 86.8761 20.344 86.2788 18.68C85.7028 17.016 85.4148 14.776 85.4148 11.96C85.4148 9.144 85.7028 6.904 86.2788 5.24C86.8761 3.576 87.8361 2.38133 89.1588 1.656C90.4814 0.909332 92.2521 0.535999 94.4708 0.535999ZM109.737 0.855999C110.847 0.855999 111.977 0.855999 113.129 0.855999C114.303 0.855999 115.455 0.877332 116.585 0.919998C117.716 0.962666 118.783 1.02667 119.785 1.112L119.593 4.088H110.953C110.356 4.088 109.908 4.23733 109.609 4.536C109.332 4.83467 109.193 5.304 109.193 5.944V17.976C109.193 18.616 109.332 19.0853 109.609 19.384C109.908 19.6827 110.356 19.832 110.953 19.832H119.593L119.785 22.808C118.783 22.8933 117.716 22.9573 116.585 23C115.455 23.0213 114.303 23.032 113.129 23.032C111.977 23.0533 110.847 23.064 109.737 23.064C108.372 23.064 107.273 22.6907 106.441 21.944C105.631 21.176 105.215 20.152 105.193 18.872V5.048C105.215 3.768 105.631 2.75467 106.441 2.008C107.273 1.24 108.372 0.855999 109.737 0.855999ZM105.769 9.976H118.377V12.92H105.769V9.976Z" fill="#0165AF"/>
    <path d="M126.131 18.616C126.665 18.616 127.027 18.7227 127.219 18.936C127.433 19.128 127.539 19.48 127.539 19.992V21.592C127.539 22.1253 127.433 22.4987 127.219 22.712C127.027 22.904 126.665 23 126.131 23H125.075C124.563 23 124.201 22.904 123.987 22.712C123.774 22.4987 123.667 22.1253 123.667 21.592V19.992C123.667 19.48 123.774 19.128 123.987 18.936C124.201 18.7227 124.563 18.616 125.075 18.616H126.131ZM140.862 0.504C142.568 0.504 144.008 0.695999 145.182 1.08C146.355 1.44267 147.294 2.06133 147.998 2.936C148.702 3.81067 149.214 4.984 149.534 6.456C149.875 7.928 150.046 9.76267 150.046 11.96C150.046 14.136 149.875 15.9707 149.534 17.464C149.214 18.936 148.702 20.1093 147.998 20.984C147.294 21.8587 146.355 22.488 145.182 22.872C144.008 23.2347 142.568 23.416 140.862 23.416C139.198 23.416 137.779 23.2347 136.606 22.872C135.432 22.488 134.483 21.8587 133.758 20.984C133.032 20.1093 132.51 18.936 132.19 17.464C131.87 15.9707 131.71 14.136 131.71 11.96C131.71 9.76267 131.87 7.928 132.19 6.456C132.51 4.984 133.032 3.81067 133.758 2.936C134.483 2.06133 135.432 1.44267 136.606 1.08C137.779 0.695999 139.198 0.504 140.862 0.504ZM140.862 3.768C139.603 3.768 138.611 4.024 137.886 4.536C137.182 5.02667 136.68 5.86933 136.382 7.064C136.083 8.23733 135.934 9.86933 135.934 11.96C135.934 14.0507 136.083 15.6933 136.382 16.888C136.68 18.0613 137.182 18.904 137.886 19.416C138.611 19.9067 139.603 20.152 140.862 20.152C142.142 20.152 143.134 19.9067 143.838 19.416C144.563 18.904 145.075 18.0613 145.374 16.888C145.672 15.6933 145.822 14.0507 145.822 11.96C145.822 9.86933 145.672 8.23733 145.374 7.064C145.075 5.86933 144.563 5.02667 143.838 4.536C143.134 4.024 142.142 3.768 140.862 3.768ZM162.964 0.631998C164.799 0.631998 166.282 0.823998 167.412 1.208C168.564 1.592 169.396 2.25333 169.908 3.192C170.442 4.10933 170.708 5.41067 170.708 7.096C170.708 8.20533 170.57 9.15467 170.292 9.944C170.036 10.712 169.599 11.3307 168.98 11.8C168.383 12.248 167.572 12.536 166.548 12.664V12.824C166.911 12.9093 167.284 13.08 167.668 13.336C168.074 13.5707 168.436 13.912 168.756 14.36C169.098 14.808 169.354 15.384 169.524 16.088L171.54 23H167.316L165.492 16.184C165.258 15.416 164.938 14.8827 164.532 14.584C164.127 14.264 163.572 14.104 162.868 14.104C161.482 14.104 160.298 14.104 159.316 14.104C158.335 14.0827 157.514 14.0613 156.852 14.04C156.212 14.0187 155.647 14.008 155.156 14.008L155.252 10.968H162.868C163.828 10.9467 164.586 10.84 165.14 10.648C165.695 10.4347 166.09 10.072 166.324 9.56C166.559 9.02667 166.676 8.28 166.676 7.32C166.676 6.38133 166.559 5.656 166.324 5.144C166.09 4.632 165.695 4.28 165.14 4.088C164.586 3.87467 163.828 3.768 162.868 3.768C160.991 3.768 159.38 3.77867 158.036 3.8C156.692 3.82133 155.775 3.84267 155.284 3.864L154.836 0.919998C155.69 0.834666 156.49 0.770666 157.236 0.727999C158.004 0.685333 158.836 0.664 159.732 0.664C160.628 0.642665 161.706 0.631998 162.964 0.631998ZM158.772 0.919998V23H154.836V0.919998H158.772ZM184.558 0.504C185.432 0.504 186.243 0.525333 186.99 0.567999C187.758 0.610665 188.483 0.685332 189.166 0.792C189.848 0.898666 190.52 1.048 191.182 1.24L190.83 4.184C190.126 4.14133 189.432 4.10933 188.75 4.088C188.067 4.04533 187.384 4.024 186.702 4.024C186.04 4.00267 185.368 3.992 184.686 3.992C183.662 3.992 182.798 4.09867 182.094 4.312C181.39 4.504 180.824 4.888 180.398 5.464C179.992 6.04 179.694 6.86133 179.502 7.928C179.31 8.99467 179.214 10.3707 179.214 12.056C179.214 14.04 179.342 15.608 179.598 16.76C179.875 17.8907 180.323 18.712 180.942 19.224C181.56 19.7147 182.392 19.96 183.438 19.96C184.142 19.96 184.792 19.8747 185.39 19.704C185.987 19.5333 186.531 19.3093 187.022 19.032C187.534 18.7333 188.014 18.4347 188.462 18.136L188.942 20.216C188.6 20.6427 188.099 21.112 187.438 21.624C186.798 22.1147 186.03 22.5413 185.134 22.904C184.238 23.2453 183.224 23.416 182.094 23.416C180.43 23.416 179.064 23.0213 177.998 22.232C176.952 21.4213 176.184 20.1733 175.694 18.488C175.224 16.7813 174.99 14.5947 174.99 11.928C174.99 9.02667 175.299 6.744 175.918 5.08C176.536 3.416 177.539 2.24267 178.926 1.56C180.334 0.856 182.211 0.504 184.558 0.504ZM191.886 10.264V23H188.942L188.366 19.704L187.982 18.904V10.264H191.886Z" fill="#49C2F1"/>
</svg>