<svg width="24" height="24" viewBox="0 0 24 24" fill="none" xmlns="http://www.w3.org/2000/svg">
    <path fill-rule="evenodd" clip-rule="evenodd" d="M9.11878 2.33057C9.11878 2.06633 8.97974 1.8216 8.75277 1.68632C8.52579 1.55104 8.24437 1.54517 8.01196 1.67089L1.93238 4.95937C1.56805 5.15644 1.43246 5.61154 1.62953 5.97587C1.8266 6.3402 2.2817 6.4758 2.64603 6.27873L7.61878 3.58893V6H6.74805C6.33383 6 5.99805 6.33579 5.99805 6.75V9.75C5.99805 10.1642 6.33383 10.5 6.74805 10.5H9.74805C10.1623 10.5 10.498 10.1642 10.498 9.75V6.75C10.498 6.33579 10.1623 6 9.74805 6H9.11878V2.33057ZM15.748 6H17.248V7.5H15.748V6ZM18.748 5.25V7.5H20.248C20.6623 7.5 20.998 7.83579 20.998 8.25V13.5H21.748C22.1623 13.5 22.498 13.8358 22.498 14.25V20.25C22.498 20.6642 22.1623 21 21.748 21H5.03862C4.71579 21 4.42919 20.7934 4.3271 20.4872L1.8271 12.9872C1.66522 12.5015 2.0267 12 2.53862 12H10.3102C10.4605 12 10.6074 12.0452 10.7317 12.1297L11.998 12.9903V8.25C11.998 7.83579 12.3338 7.5 12.748 7.5H14.248V5.25C14.248 4.83579 14.5838 4.5 14.998 4.5H17.998C18.4123 4.5 18.748 4.83579 18.748 5.25ZM12.748 15H20.248H20.998V19.5H5.57919L3.57919 13.5H10.0794L11.9049 14.7406C12.1536 14.9096 12.4474 15 12.748 15ZM19.498 9V13.5H13.498V9H14.998H17.998H19.498ZM7.49805 7.5V9H8.99805V7.5H7.49805Z" fill="#009BE1"/>
</svg>
